<?xml version="1.0" encoding="UTF-8"?>
<svg width="914px" height="975px" viewBox="0 0 914 975" version="1.1" xmlns="http://www.w3.org/2000/svg" xmlns:xlink="http://www.w3.org/1999/xlink">
    <!-- Generator: Sketch 52.6 (67491) - http://www.bohemiancoding.com/sketch -->
    <title>bg_home_2</title>
    <desc>Created with Sketch.</desc>
    <g id="bg_home_2" stroke="none" stroke-width="1" fill="none" fill-rule="evenodd">
        <path d="M238.249174,129.457937 C257.180668,83.6093913 287.296029,37.6308892 334.142147,22.4650012 C380.923915,7.32510436 432.158639,27.1304286 472.492631,55.4218925 C512.839493,83.7133563 547.098934,120.529947 589.26044,145.988365 C635.771942,174.071899 689.503409,186.88558 742.192421,199.751244 C794.868564,212.603911 848.522812,226.327286 894.159167,255.840338 C939.795522,285.366385 976.834842,333.905025 978.688095,388.603587 C980.811615,451.268465 937.633394,506.473857 889.371597,545.928558 C841.09693,585.383259 785.087506,615.987943 744.071414,663.071073 C702.167304,711.167861 679.246168,772.611151 649.053588,828.947162 C618.848138,885.283172 576.390627,940.540547 515.580763,958.760406 C477.074284,970.28752 435.183045,965.388172 397.191358,952.236605 C359.199672,939.085038 324.425438,918.097112 290.165997,896.914252 C231.209386,860.461539 172.458692,822.696269 122.137726,774.833402 C71.8167589,726.957539 29.9255192,667.983417 11.8691723,600.60113 C-6.2000444,533.218842 1.89506765,456.882573 42.6923732,400.533566 C80.3365747,348.538092 141.403835,317.608518 178.584723,265.275158 C207.258665,224.923759 219.31768,175.306483 238.249174,129.457937 Z" id="Fill-59-Copy-2" fill="#F7AB4D" transform="translate(490.763276, 491.236724) rotate(-60.000000) translate(-490.763276, -491.236724) "></path>
    </g>
</svg>